<?xml version="1.0" encoding="UTF-8"?>
<svg width="228.910832px" height="228.820642px" viewBox="0 0 228.910832 228.820642" version="1.1" xmlns="http://www.w3.org/2000/svg" xmlns:xlink="http://www.w3.org/1999/xlink">
    <title>mushroom</title>
    <g id="mushroom" stroke="none" stroke-width="1" fill="none" fill-rule="evenodd">
        <path d="M3.89620367,127.075793 C-4.54720013,146.642959 34.6025155,144.603352 47.3661532,141.377695 C49.7591422,133.416715 51.5324206,124.539324 52.6859881,114.745522 C26.8004565,110.15386 10.537195,114.26395 3.89620367,127.075793 Z" id="Path-2" fill="#FFFFFF"></path>
        <path d="M74.5439479,119.773795 C113.559007,129.280109 123.654271,145.446943 160.960761,148.787403 C167.260899,180.189298 174.588635,198.24083 172.753576,207.167625 C166.006592,239.988867 61.959719,231.798778 53.6510581,207.167625 C48.2273482,191.088954 66.8562581,167.765814 74.5439479,119.773795 Z M113.792516,0 C136.837309,0 171.42343,8.670371 196.007276,34.8292422 C220.591122,60.9881134 239.472871,111.842117 222.270177,134.362669 C191.818799,163.801003 51.4737046,60.9881134 0,100.960879 C12.0013008,12.7302963 90.747722,0 113.792516,0 Z" id="Combined-Shape" fill="#FFFFFF"></path>
    </g>
</svg>